HIERARCHY
ROOT Hips
{
	OFFSET	0.00	0.00	0.00
	CHANNELS 6 Xposition Yposition Zposition Zrotation Xrotation Yrotation
	JOINT LeftUpLeg
	{
		OFFSET	 0.126116	-0.014019	-0.065224
		CHANNELS 3 Zrotation Xrotation Yrotation
		JOINT LeftLeg
		{
			OFFSET	 0.000000	 0.000000	 0.569914
			CHANNELS 3 Zrotation Xrotation Yrotation
			JOINT LeftFoot
			{
				OFFSET	 0.000000	 0.000000	 0.544423
				CHANNELS 3 Zrotation Xrotation Yrotation
				JOINT LeftToeBase
				{
					OFFSET	 0.000000	 0.000000	 0.207117
					CHANNELS 3 Zrotation Xrotation Yrotation
					End Site
					{
						OFFSET	 0.000000	 0.000000	 0.207117
					}
				}
			}
		}
	}
	JOINT RightUpLeg
	{
		OFFSET	-0.124023	-0.008373	-0.065224
		CHANNELS 3 Zrotation Xrotation Yrotation
		JOINT RightLeg
		{
			OFFSET	 0.000000	 0.000000	 0.570047
			CHANNELS 3 Zrotation Xrotation Yrotation
			JOINT RightFoot
			{
				OFFSET	 0.000000	 0.000000	 0.544354
				CHANNELS 3 Zrotation Xrotation Yrotation
				JOINT RightToeBase
				{
					OFFSET	 0.000000	 0.000000	 0.207540
					CHANNELS 3 Zrotation Xrotation Yrotation
					End Site
					{
						OFFSET	 0.000000	 0.000000	 0.207540
					}
				}
			}
		}
	}
	JOINT Spine
	{
		OFFSET	 0.000184	-0.007763	 0.117403
		CHANNELS 3 Zrotation Xrotation Yrotation
		JOINT Spine1
		{
			OFFSET	 0.000000	 0.000000	 0.137269
			CHANNELS 3 Zrotation Xrotation Yrotation
			JOINT Spine2
			{
				OFFSET	 0.000000	 0.000000	 0.156879
				CHANNELS 3 Zrotation Xrotation Yrotation
				JOINT LeftShoulder
				{
					OFFSET	 0.080501	-0.002496	 0.160144
					CHANNELS 3 Zrotation Xrotation Yrotation
					JOINT LeftArm
					{
						OFFSET	 0.000000	 0.000000	 0.164363
						CHANNELS 3 Zrotation Xrotation Yrotation
						JOINT LeftForeArm
						{
							OFFSET	 0.000000	 0.000000	 0.364576
							CHANNELS 3 Zrotation Xrotation Yrotation
							JOINT LeftHand
							{
								OFFSET	 0.000000	 0.000000	 0.360812
								CHANNELS 3 Zrotation Xrotation Yrotation
								JOINT LeftHandIndex1
								{
									OFFSET	 0.000000	 0.000000	 0.086006
									CHANNELS 3 Zrotation Xrotation Yrotation
									JOINT LeftHandIndex2
									{
										OFFSET	 0.000000	 0.000000	 0.047236
										CHANNELS 3 Zrotation Xrotation Yrotation
										JOINT LeftHandIndex3
										{
											OFFSET	-0.004284	-0.000551	 0.038166
											CHANNELS 3 Zrotation Xrotation Yrotation
											End Site
											{
												OFFSET	-0.004284	-0.000551	 0.038166
											}
										}
									}
								}
							}
						}
					}
				}
				JOINT Neck
				{
					OFFSET	 0.000000	 0.000000	 0.176489
					CHANNELS 3 Zrotation Xrotation Yrotation
					JOINT Head
					{
						OFFSET	 0.000000	-0.001747	 0.077940
						CHANNELS 3 Zrotation Xrotation Yrotation
						End Site
						{
							OFFSET	 0.000000	-0.001747	 0.077940
						}
					}
				}
				JOINT RightShoulder
				{
					OFFSET	-0.080363	 0.000306	 0.159706
					CHANNELS 3 Zrotation Xrotation Yrotation
					JOINT RightArm
					{
						OFFSET	 0.000000	 0.000000	 0.164196
						CHANNELS 3 Zrotation Xrotation Yrotation
						JOINT RightForeArm
						{
							OFFSET	 0.000000	 0.000000	 0.365611
							CHANNELS 3 Zrotation Xrotation Yrotation
							JOINT RightHand
							{
								OFFSET	 0.000000	 0.000000	 0.360648
								CHANNELS 3 Zrotation Xrotation Yrotation
								JOINT RightHandIndex1
								{
									OFFSET	 0.000000	 0.000000	 0.069977
									CHANNELS 3 Zrotation Xrotation Yrotation
									JOINT RightHandIndex2
									{
										OFFSET	 0.000000	 0.000000	 0.052305
										CHANNELS 3 Zrotation Xrotation Yrotation
										JOINT RightHandIndex3
										{
											OFFSET	 0.009002	-0.000782	 0.042196
											CHANNELS 3 Zrotation Xrotation Yrotation
											End Site
											{
												OFFSET	 0.009002	-0.000782	 0.042196
											}
										}
									}
								}
							}
						}
					}
				}
			}
		}
	}
}
MOTION
Frames:    7
Frame Time: 0.03333334
-0.000137	 0.044318	 1.277539	-0.072103	 2.788981	 0.522144	-2.713879	-5.633189	 178.777600	 2.207194	-12.387740	 0.563234	-0.056238	 70.639690	-0.057642	-2.385833	 28.452750	 0.000004	 10.227400	-5.087596	-178.952200	-0.794301	-10.675130	 0.807659	 5.137888	 69.532710	 1.187224	 2.384659	 28.388700	-0.000001	-4.511956	 7.019294	 1.063650	-2.077234	-5.287316	-0.254138	 6.506149	 8.577711	-0.497603	-91.090090	 69.249570	-177.646100	-7.875511	 2.947383	-19.225980	 25.377270	-2.803072	-10.682580	-10.037270	-30.676400	-5.210728	-2.027600	 6.559038	 9.033609	-5.188889	 0.308190	 3.541030	-5.234859	 0.342567	 0.430617	 4.536941	 19.193390	-7.132804	 1.552474	-14.011760	 2.129066	 88.906270	 67.943020	 177.149100	 8.800528	 7.471552	 2.407052	-23.791260	-12.627330	 37.311540	 7.713188	-30.422840	 7.084570	 1.803333	 3.979147	-15.098590	 4.898592	 3.004813	-9.310344	 5.224449	 0.395017	 2.014677
-0.000774	 0.049024	 1.278874	 0.009858	 3.843027	 0.568674	-2.887134	-6.773567	 178.589600	 2.081573	-11.870100	 0.529007	-0.273060	 69.940380	 0.226002	-2.385833	 28.452750	 0.000004	 10.055540	-6.007005	-178.751500	-0.794056	-9.749400	 0.738381	 5.043317	 68.590490	 1.262593	 2.384659	 28.388700	-0.000001	-4.937745	 7.737014	 1.217377	-2.207751	-7.600408	-0.453653	 6.618094	 11.422240	-0.703070	-90.916830	 68.065670	-177.291400	-6.810408	 3.554496	-20.698530	 24.241980	-3.109230	-13.049810	-9.725592	-35.133450	-6.722504	-2.027600	 6.559038	 9.033609	-5.188889	 0.308190	 3.541030	-5.234859	 0.342567	 0.430617	 4.719699	 22.605430	-8.158599	 2.052612	-16.507830	 2.232434	 88.612610	 65.913340	 176.635600	 7.463592	 7.665298	 4.335171	-23.369010	-12.505220	 38.102440	 6.589043	-34.056660	 7.247496	 1.803333	 3.979147	-15.098590	 4.898592	 3.004813	-9.310344	 5.224449	 0.395017	 2.014677
-0.001531	 0.055213	 1.279752	 0.119669	 5.142746	 0.648542	-2.908748	-8.463129	 178.351400	 2.214817	-11.756150	 0.523185	-0.572499	 69.422620	 0.554294	-2.385833	 28.452760	 0.000004	 9.808002	-7.385849	-178.552700	-0.961680	-9.055854	 0.659791	 5.190138	 67.694820	 1.256897	 2.384659	 28.388700	-0.000001	-5.284651	 8.394910	 1.323170	-2.329941	-9.732643	-0.612289	 6.576763	 13.937650	-0.912595	-90.826400	 66.848510	-177.222500	-5.426225	 4.961065	-23.234610	 22.649690	-2.759794	-13.493070	-10.718960	-39.684000	-9.063107	-2.027600	 6.559038	 9.033609	-5.188889	 0.308190	 3.541030	-5.234859	 0.342567	 0.430617	 4.612925	 25.165150	-8.758332	 2.520293	-18.513400	 2.281969	 88.413060	 63.820570	 176.442800	 5.615846	 8.470985	 6.357648	-22.702990	-11.960020	 38.468360	 5.961512	-37.779470	 8.042908	 1.803333	 3.979147	-15.098590	 4.898592	 3.004813	-9.310344	 5.224449	 0.395017	 2.014677
-0.002303	 0.062828	 1.280520	 0.265752	 6.747320	 0.748832	-3.210094	-10.655660	 178.021200	 2.118800	-11.850030	 0.520962	-0.867387	 68.910750	 0.906116	-2.385832	 28.452790	-0.000001	 9.500878	-9.186135	-178.323900	-1.327483	-8.395366	 0.552908	 5.651686	 66.767170	 1.154328	 2.384659	 28.388700	-0.000001	-5.578008	 8.979253	 1.360003	-2.427251	-11.671660	-0.707075	 6.404219	 16.122260	-1.127346	-90.907760	 65.448760	-177.642500	-3.827962	 6.267567	-25.801620	 20.357720	-2.110585	-13.275330	-13.313990	-43.894400	-12.352220	-2.027600	 6.559038	 9.033609	-5.188889	 0.308190	 3.541030	-5.234859	 0.342567	 0.430617	 4.204782	 26.614160	-8.827830	 2.834478	-19.794140	 2.178013	 88.443650	 61.751500	 176.797900	 3.178238	 9.173147	 8.051373	-21.658450	-11.097070	 38.871060	 5.977791	-41.307060	 9.630303	 1.803333	 3.979147	-15.098590	 4.898592	 3.004813	-9.310344	 5.224449	 0.395017	 2.014677
-0.002654	 0.072080	 1.280437	 0.567876	 8.711546	 0.750305	-3.645341	-13.697050	 177.752000	 2.021387	-12.643480	 0.533930	-1.027584	 68.401470	 1.198150	-2.385833	 28.452760	 0.000004	 9.064800	-12.088340	-178.000200	-1.547747	-9.044905	 0.566449	 6.271413	 66.377490	 0.651368	 2.384659	 28.388700	-0.000001	-5.905630	 9.315199	 1.347980	-2.471844	-13.723810	-0.787142	 6.143195	 17.857490	-1.193233	-91.513310	 64.863210	-179.306000	-2.410460	 8.020866	-25.015460	 18.693590	-2.114959	-16.193930	-16.490960	-47.168170	-16.035130	-2.027600	 6.559038	 9.033609	-5.188889	 0.308190	 3.541030	-5.234859	 0.342567	 0.430617	 3.721491	 26.945590	-8.744367	 3.027828	-20.414680	 2.122478	 89.005420	 60.988050	 178.190900	 0.368771	 10.921970	 7.851364	-20.703120	-10.584600	 40.016430	 6.384517	-44.608390	 11.457410	 1.803333	 3.979147	-15.098590	 4.898592	 3.004813	-9.310344	 5.224449	 0.395017	 2.014677
-0.002966	 0.083332	 1.280009	 0.799197	 10.949180	 0.670881	-4.025280	-17.127610	 177.516500	 2.010700	-13.370830	 0.561625	-1.318100	 67.865460	 1.539826	-2.385832	 28.452790	-0.000001	 8.829673	-15.522080	-177.529300	-1.738658	-9.894051	 0.586193	 6.913892	 66.033220	 0.120473	 2.384659	 28.388700	-0.000001	-6.219543	 9.653924	 1.411304	-2.418659	-15.112260	-0.862449	 5.859931	 18.976020	-1.013093	-92.288260	 64.990500	 178.640000	-0.806311	 10.847370	-24.736900	 18.126990	-2.184396	-18.289300	-19.209770	-50.035660	-19.325350	-2.027600	 6.559038	 9.033609	-5.188889	 0.308190	 3.541030	-5.234859	 0.342567	 0.430617	 3.281292	 25.844970	-8.927751	 3.104149	-20.230480	 1.960893	 89.760440	 60.460990	 179.950400	-2.533675	 13.496690	 8.019836	-19.475780	-9.682666	 40.875850	 7.837945	-47.857590	 13.653150	 1.803333	 3.979147	-15.098590	 4.898592	 3.004813	-9.310344	 5.224449	 0.395017	 2.014677
-0.004018	 0.096677	 1.279398	 1.448051	 13.994980	 0.669383	-4.965852	-21.553370	 176.916800	 2.356561	-14.162600	 0.679008	-2.155202	 67.151800	 2.114769	-2.385832	 28.452790	-0.000001	 8.165254	-19.711610	-177.145300	-1.644171	-10.446090	 0.635736	 6.979709	 65.214280	-0.103453	 2.384659	 28.388700	-0.000001	-6.692791	 9.679513	 1.384160	-2.548375	-16.027610	-1.022443	 5.449782	 19.272370	-0.892524	-93.045170	 65.213810	 176.594500	 1.310064	 13.760870	-26.710280	 17.905720	-1.805082	-16.678380	-21.632580	-52.098180	-22.345770	-2.027600	 6.559038	 9.033609	-5.188889	 0.308190	 3.541030	-5.234859	 0.342567	 0.430617	 2.901716	 24.824280	-8.811572	 3.096830	-20.162150	 1.762851	 90.579350	 60.379840	-178.180400	-5.649076	 16.452490	 9.146315	-18.316810	-8.603719	 41.108060	 9.815167	-50.389100	 16.195370	 1.803333	 3.979147	-15.098590	 4.898592	 3.004813	-9.310344	 5.224449	 0.395017	 2.014677
